<svg width="94" height="75" viewBox="0 0 94 75" fill="none" xmlns="http://www.w3.org/2000/svg">
    <path
        d="M71.5751 12.7801L71.5782 12.787C72.1596 14.0782 73.4156 14.9251 74.8366 14.9251H84.7854C86.9179 14.9251 88.8505 15.8026 90.2328 17.2067C91.6182 18.6141 92.4832 20.5653 92.5 22.7068V65.7241C92.5 67.8599 91.6379 69.8097 90.2511 71.2184C88.87 72.6213 86.9195 73.5 84.8038 73.5H50.6436H9.19625C7.0805 73.5 5.12999 72.6213 3.74891 71.2184L3.74306 71.2125C2.36636 69.8294 1.5 67.8661 1.5 65.7057V22.701C1.5 20.5652 2.36215 18.6154 3.74889 17.2067C5.12999 15.8038 7.0805 14.9251 9.19625 14.9251H19.1451C20.5402 14.9251 21.8189 14.0852 22.4035 12.787L22.4035 12.787L22.4066 12.7801L25.3802 6.08596L25.3811 6.08386C26.6114 3.30302 29.362 1.5 32.398 1.5H61.5837C64.6196 1.5 67.3703 3.30302 68.6005 6.08386L68.6014 6.08596L71.5751 12.7801Z"
        fill="#FFFCDD" stroke="black" stroke-width="3" />
    <circle cx="46.5" cy="43.5" r="20" stroke="black" stroke-width="3" />
    <path
        d="M55.5 43.5C55.5 47.8467 51.7678 51.5 47 51.5C42.2322 51.5 38.5 47.8467 38.5 43.5C38.5 39.1533 42.2322 35.5 47 35.5C51.7678 35.5 55.5 39.1533 55.5 43.5Z"
        fill="black" stroke="black" stroke-width="3" />
    <rect x="68" y="22" width="7" height="6" fill="black" />
</svg>
