<svg height="512" viewBox="0 0 512 512" width="512" xmlns="http://www.w3.org/2000/svg"><g id="Basket"><path d="m464 448h-416l-16-224h448z" fill="#ff5023"/><path d="m16 176h480v48h-480z" fill="#ffda44"/><path d="m200 376a8 8 0 0 0 8-8v-40h32v40a8 8 0 0 0 16 0v-96a8 8 0 0 0 -8-8h-48a8 8 0 0 0 -8 8v96a8 8 0 0 0 8 8zm8-96h32v32h-32z"/><path d="m272 376h48a8 8 0 0 0 0-16h-40v-88a8 8 0 0 0 -16 0v96a8 8 0 0 0 8 8z"/><path d="m128 360a8 8 0 0 0 0 16h48a8 8 0 0 0 8-8v-48a8 8 0 0 0 -8-8h-40v-32h40a8 8 0 0 0 0-16h-48a8 8 0 0 0 -8 8v48a8 8 0 0 0 8 8h40v32z"/><path d="m344 376h48a8 8 0 0 0 0-16h-40v-32h40a8 8 0 0 0 0-16h-40v-32h40a8 8 0 0 0 0-16h-48a8 8 0 0 0 -8 8v96a8 8 0 0 0 8 8z"/><path d="m160 416h-8a8 8 0 0 0 0 16h8a8 8 0 0 0 0-16z"/><path d="m496 168h-88v-40a72.081 72.081 0 0 0 -72-72h-160a72.081 72.081 0 0 0 -72 72v40h-88a8 8 0 0 0 -8 8v48a8 8 0 0 0 8 8h8.551l15.47 216.57a8 8 0 0 0 7.979 7.43h416a8 8 0 0 0 7.979-7.43l15.47-216.57h8.551a8 8 0 0 0 8-8v-48a8 8 0 0 0 -8-8zm-376-40a56.063 56.063 0 0 1 56-56h160a56.063 56.063 0 0 1 56 56v40h-272zm336.551 312h-401.102l-14.857-208h430.816zm31.449-224h-464v-32h464z"/><path d="m72 432h56a8 8 0 0 0 0-16h-56a8 8 0 0 0 0 16z"/></g></svg>